# xmcd CD database file
#
# Track frame offsets:
#	150
#	19788
#	33410
#	55068
#	78273
#	94460
#	113258
#	128255
#
# Disc length: 1944 seconds
#
# Revision: 0
# Processed by: cddbd v1.5.1PL0 Copyright (c) Steve Scherf et al.
# Submitted via: CDex 1.51
#
DISCID=51079608
DTITLE=Justo Betancourt - Lo sabemos
DYEAR=1975
DGENRE=Salsa
TTITLE0=Como lo canto yo
TTITLE1=Lo sabemos
TTITLE2=De mi para puerto rico
TTITLE3=Pedregal
TTITLE4=Mi engaño y tu
TTITLE5=Demuestrame que tu sabes
TTITLE6=Me tienes que recordar
TTITLE7=Cambia palo pa'rumba
EXTD=YEAR: 1975
EXTT0=
EXTT1=
EXTT2=
EXTT3=
EXTT4=
EXTT5=
EXTT6=
EXTT7=
PLAYORDER=
